<svg xmlns="http://www.w3.org/2000/svg" xmlns:xlink="http://www.w3.org/1999/xlink" width="18" height="22" viewBox="0 0 18 22">
    <defs>
        <path id="prefix__a" d="M0 0.5L18 0.5 18 22 0 22z"/>
    </defs>
    <g fill="none" fill-rule="evenodd" transform="translate(0 -.5)">
        <mask id="prefix__b" fill="#fff">
            <use xlink:href="#prefix__a"/>
        </mask>
        <path fill="#000" d="M14 17H4v-7c0-2.761 2.238-5 5-5 2.761 0 5 2.239 5 5v7zm2-1v-6c0-3.286-2.29-6.128-5.5-6.83V2c0-.828-.672-1.5-1.5-1.5-.829 0-1.5.672-1.5 1.5v1.17C4.29 3.872 2.001 6.714 2 10v6l-2 2v1h18v-1l-2-2zm-7 6c1.1 0 1.99-.89 1.99-1.988v-.002H7.01c0 1.098.89 1.99 1.988 1.99H9z" mask="url(#prefix__b)"/>
    </g>
</svg>
