<svg xmlns="http://www.w3.org/2000/svg" width="45" height="45" viewBox="0 0 45 45">
    <g fill="none" fill-rule="evenodd">
        <g>
            <g>
                <g transform="translate(-115 -116) translate(115 116)">
                    <circle cx="22.5" cy="22.5" r="22.5" fill="#EB1E27"/>
                    <g>
                        <path d="M0 0L18.947 0 18.947 18.947 0 18.947z" transform="translate(13.421 15.79)"/>
                        <path fill="#FFF" fill-rule="nonzero" d="M1.579 7.105h2.368v9.474H1.58c-.436 0-.79-.354-.79-.79V7.895c0-.436.354-.79.79-.79zm4.179-1.02l5.052-5.053c.14-.14.36-.155.517-.037L12 1.5c.382.287.555.776.437 1.24l-.91 3.576h5.052c.872 0 1.579.707 1.579 1.579v1.66c0 .207-.04.412-.119.602l-2.443 5.933c-.122.296-.41.489-.73.489h-8.55c-.436 0-.79-.354-.79-.79V6.643c0-.21.084-.41.232-.559z" transform="translate(13.421 15.79)"/>
                    </g>
                    <g>
                        <path d="M0 0L12.632 0 12.632 12.632 0 12.632z" transform="translate(18.947 3.947)"/>
                        <path fill="#FFF" fill-rule="nonzero" d="M11.73 7.218v1.128c0 1.869-2.626 3.383-5.865 3.383-3.182 0-5.771-1.46-5.862-3.283L0 8.346V7.218c0 1.869 2.626 3.384 5.865 3.384 3.239 0 5.864-1.515 5.864-3.384zM5.864 2.707c3.239 0 5.864 1.514 5.864 3.383S9.104 9.474 5.865 9.474C2.625 9.474 0 7.959 0 6.09s2.626-3.383 5.865-3.383z" transform="translate(18.947 3.947)"/>
                    </g>
                </g>
            </g>
        </g>
    </g>
</svg>
