<svg xmlns="http://www.w3.org/2000/svg" width="18" height="18" viewBox="0 0 18 18">
    <defs>
        <linearGradient id="0tln8uqw9a" x1="-31.292%" x2="161.948%" y1="-13.629%" y2="100%">
            <stop offset="0%" stop-color="#ED303B"/>
            <stop offset="64.656%" stop-color="#FBBE36"/>
            <stop offset="100%" stop-color="#FFDF5C"/>
        </linearGradient>
    </defs>
    <g fill="none" fill-rule="evenodd">
        <g>
            <g transform="translate(-25 -222) translate(25 222)">
                <path fill="url(#0tln8uqw9a)" d="M8.881 0c4.905 0 8.881 3.976 8.881 8.881s-3.976 8.881-8.88 8.881C3.975 17.762 0 13.786 0 8.882 0 3.975 3.976 0 8.881 0zm0 4.93L7.72 7.283l-2.597.377 1.88 1.832-.444 2.586 2.322-1.221 2.323 1.22-.444-2.585L12.64 7.66l-2.597-.377-1.16-2.353z"/>
                <circle cx="8.881" cy="8.881" r="8.631" stroke="#ED303B" stroke-width=".5"/>
                <path fill="#FFF" d="M8.881 10.857L6.559 12.078 7.002 9.492 5.123 7.66 7.72 7.283 8.881 4.93 10.042 7.283 12.639 7.66 10.76 9.492 11.204 12.078z"/>
            </g>
        </g>
    </g>
</svg>
