<svg xmlns="http://www.w3.org/2000/svg" xmlns:xlink="http://www.w3.org/1999/xlink" width="70" height="70" viewBox="0 0 70 70">
    <defs>
        <path id="p7kxp3drwa" d="M0 0H58.5V65H0z"/>
        <path id="sjvpm0xsfc" d="M0.144 0.117L25.34 0.117 25.34 13.337 0.144 13.337z"/>
    </defs>
    <g fill="none" fill-rule="evenodd">
        <g>
            <g transform="translate(-26 -103) translate(26 103)">
                <rect width="70" height="70" fill="#8F27EE" opacity=".25" rx="4"/>
                <g transform="translate(6 3)">
                    <mask id="v3a9ixcy7b" fill="#fff">
                        <use xlink:href="#p7kxp3drwa"/>
                    </mask>
                    <g mask="url(#v3a9ixcy7b)">
                        <g>
                            <path fill="#FFD800" d="M7.946 47.825c-.37-1.736-3.41-4.562-3.562-4.702-.25-.2-.497-.41-.736-.63-.65-.597-1.19-1.282-1.633-2.024L.644 43.27C-.53 45.67.472 48.591 2.87 49.765l6.066 2.968c-.401-2.02-.817-4.097-.99-4.908M48.334 56.973c-2.788 1.464-5.792 2.136-9.012 2.014-2.84-.008-5.55-.495-8.13-1.455l-.002.021-6.004 3.134 15.174 7.427c2.398 1.173 5.32.172 6.494-2.227l5.199-10.621c-1.16.707-2.398 1.277-3.72 1.707M11.559 23.395c2.498 0 4.763.863 6.709 2.29.97-2.522 2.473-4.731 4.514-6.627 2.12-2.281 4.628-3.893 7.528-4.837 2.788-1.464 5.791-2.135 9.012-2.014 1.679.005 3.312.18 4.9.517L25.918 4.895c-2.398-1.174-5.32-.172-6.494 2.226l-9.09 16.351c.41-.049.818-.077 1.225-.077M62.977 21.904l-9.365-4.584 2.25 1.738c2.898 2.918 4.903 6.359 6.015 10.321l.613 4.563 2.713-5.544c1.174-2.398.172-5.32-2.226-6.494" transform="rotate(-29 24.281 41.99)"/>
                            <path fill="#7C00FF" d="M39.22 14.754c-8.26.01-15.433 4.884-18.796 11.897 1.306 1.203 2.633 3.105 3.004 6.008 0 0 .46 1.556-.25 3.858-.71 2.301-1.762 5.474-1.762 5.474l-1.001 2.596c.676 1.414 1.506 2.741 2.47 3.958.601.76.759 1.781.417 2.689l-2.235 5.93c-.248.658.453 1.271 1.073.938l6.201-3.337c.749-.403 1.643-.445 2.419-.099 2.675 1.193 5.648 1.84 8.776 1.797 11.452-.156 20.564-9.4 20.564-20.853 0-11.526-9.351-20.869-20.88-20.856" transform="rotate(-29 24.281 41.99)"/>
                            <path fill="#040404" d="M18.09 47.825l-7.048 1.496 1.195 5.634h.002l.506 2.383 3.265 1.195c.446.163.947.057 1.288-.274l2.494-2.416-.588-2.775h-.002l-1.112-5.243z" transform="rotate(-29 24.281 41.99)"/>
                            <path fill="#FFF" d="M20.178 53.566l-8.681 1.842c-.15.032-.299-.064-.33-.215l-.172-.808c-.032-.15.064-.298.215-.33l8.68-1.842c.151-.032.299.064.331.215l.171.808c.032.15-.064.298-.214.33" transform="rotate(-29 24.281 41.99)"/>
                            <path fill="#FFD800" d="M21.42 32.384c-1.033-4.87-6.764-7.78-11.634-6.746-4.87 1.033-8.454 5.92-7.42 10.79.437 2.062 2.138 4.057 3.055 5.058 3.538 3.863 4.891 5.263 5.667 7.964l7.178-1.522c-.4-2.678.865-4.982 2.416-9.681.828-2.51 1.176-3.8.738-5.863" transform="rotate(-29 24.281 41.99)"/>
                            <path fill="#FFC000" d="M13.93 43.94c-2.075.44-4.256.391-6.343-.075 1.98 2.22 2.909 3.524 3.5 5.585l7.179-1.522c-.303-2.032.352-3.85 1.363-6.66-1.652 1.287-3.593 2.226-5.7 2.673" transform="rotate(-29 24.281 41.99)"/>
                            <path fill="#FFF" d="M9.304 37.256c-.064.013-.127.037-.191.07-.424.22-.564.665-.455.968.107.3.427.417.878.322l.752-.16-.059-.275c-.095-.447-.29-.76-.55-.883-.118-.056-.245-.07-.375-.042zm5.276.286l.54-.115c.356-.076.626-.207.781-.38.118-.132.164-.28.132-.429-.062-.293-.414-.534-.895-.432-.209.045-.356.138-.451.287-.162.255-.165.649-.107 1.069zm2.1 9.908l-.354.075-1.84-8.643c-.023-.108-.05-.222-.076-.34-.042-.181-.086-.373-.124-.567l-3.569.76 2.033 9.551-.354.075-2.033-9.551-.752.16c-.75.16-1.16-.182-1.294-.554-.162-.45.03-1.1.629-1.412.294-.153.61-.165.888-.034.364.172.63.575.75 1.135l.058.275 3.583-.763c-.07-.5-.066-.989.156-1.338.148-.232.377-.382.681-.447.703-.15 1.226.244 1.325.71.056.263-.02.528-.216.746-.21.234-.538.4-.975.493l-.556.118c.038.192.081.382.123.561.027.12.054.237.077.346l1.84 8.644z" transform="rotate(-29 24.281 41.99)"/>
                            <path fill="#FFF" d="M19.062 48.326l-8.68 1.842c-.151.032-.3-.064-.331-.215l-.172-.808c-.032-.15.065-.299.215-.33l8.68-1.842c.152-.032.3.064.332.215l.17.808c.033.15-.063.298-.214.33M19.586 50.788l-8.68 1.842c-.151.032-.3-.064-.331-.215l-.171-.808c-.032-.15.064-.298.214-.33l8.681-1.842c.15-.032.299.064.33.215l.172.808c.032.15-.064.299-.215.33M14.304 27.788c.269 1.263-1.297 2.666-3.497 3.135-2.2.468-4.203-.176-4.472-1.439-.268-1.263 1.297-2.666 3.498-3.134 2.2-.469 4.202.175 4.471 1.438M10.737 32.355c.096.452-.464.955-1.252 1.122-.787.168-1.504-.062-1.6-.515-.096-.452.464-.954 1.252-1.122.787-.167 1.504.063 1.6.515" transform="rotate(-29 24.281 41.99)"/>
                            <path fill="#FFD800" d="M28.443 3.564l1.477-2.09c1.493-1.658 3.983-1.956 5.824-.696L61.42 18.353 28.443 3.564z" transform="rotate(-29 24.281 41.99)"/>
                            <g transform="rotate(-29 24.281 41.99) translate(12.209 58.51)">
                                <mask id="62zrygrqyd" fill="#fff">
                                    <use xlink:href="#sjvpm0xsfc"/>
                                </mask>
                                <path fill="#FFD800" d="M6.015 1.343l-.356.217c-.366.223-.813.268-1.216.121L.143.117 18.32 12.559c1.841 1.26 4.331.962 5.824-.696l1.196-1.329L6.015 1.343z" mask="url(#62zrygrqyd)"/>
                            </g>
                            <path fill="#FFD800" d="M9.597 55.528L4.853 53.493 10.016 57.028z" transform="rotate(-29 24.281 41.99)"/>
                            <text font-family="Ooredoo-Heavy, Ooredoo" font-size="11" font-weight="600" transform="rotate(-29 24.281 41.99) rotate(30 39.954 35.825)">
                                <tspan x="24.954" y="42.825" fill="#FFF">1+1=0</tspan>
                            </text>
                        </g>
                    </g>
                </g>
            </g>
        </g>
    </g>
</svg>
