<svg xmlns="http://www.w3.org/2000/svg" width="20" height="20" viewBox="0 0 20 20">
    <g fill="none" fill-rule="evenodd">
        <g>
            <g>
                <path d="M0 0L24 0 24 24 0 24z" transform="translate(-322 -40) translate(320 38)"/>
                <path fill="#FFF" fill-rule="nonzero" d="M4 8h16v13c0 .552-.448 1-1 1H5c-.552 0-1-.448-1-1V8zm3-3V3c0-.552.448-1 1-1h8c.552 0 1 .448 1 1v2h5v2H2V5h5zm2-1v1h6V4H9zm0 8v6h2v-6H9zm4 0v6h2v-6h-2z" transform="translate(-322 -40) translate(320 38)"/>
            </g>
        </g>
    </g>
</svg>
