<svg xmlns="http://www.w3.org/2000/svg" width="24" height="24" viewBox="0 0 24 24">
    <g fill="none" fill-rule="evenodd">
        <path fill="#000" d="M11.88 0C5.254.053-.052 5.412 0 11.959.053 18.454 5.36 23.76 11.88 23.76h.08c3.168-.026 6.15-1.267 8.368-3.538 2.218-2.27 3.459-5.253 3.432-8.421C23.708 5.306 18.401 0 11.88 0" opacity=".5"/>
        <g fill="#FFF">
            <path d="M1.366 10.945L1.363 10.942 0 15.59 4.648 14.227 4.644 14.224 4.654 14.222 1.368 10.936zM15.038 1.212l-.663-.663c-.732-.732-1.919-.732-2.65 0l-.32.319-.474.474.001.002-8.797 8.796 3.314 3.314.006-.006 8.818-8.818v-.001l.29-.291.469-.469.006-.006c.732-.732.732-1.919 0-2.651" transform="translate(4 4)"/>
        </g>
    </g>
</svg>
