<svg xmlns="http://www.w3.org/2000/svg" width="112" height="50" viewBox="0 0 112 50">
    <g fill="none" fill-rule="evenodd">
        <g>
            <g transform="translate(-23 -576) translate(23 576)">
                <rect width="112" height="50" fill="#FFE7CC" rx="8"/>
                <text fill="#FF0032" font-family="Roboto-Regular, Roboto" font-size="12">
                    <tspan x="49.401" y="29">Education</tspan>
                </text>
                <g>
                    <g>
                        <path d="M0 0H30V30H0z" transform="translate(10 10)"/>
                        <g stroke="#FF0032" stroke-width="1.94">
                            <path d="M21.822 8.179l-7.581 2.978c-.108.044-.234.044-.342 0L6.318 8.179v7.3c0 .091.113.312.47.583.358.273.914.56 1.625.813 1.422.505 3.433.883 5.657.883s4.235-.378 5.657-.883c.71-.253 1.267-.54 1.625-.813.357-.271.47-.492.47-.584v-7.3z" transform="translate(10 10) translate(1 6)"/>
                            <path d="M14.034.235L.29 5.637c-.084.033-.084.151 0 .184l13.743 5.386c.023.008.049.008.072 0L27.85 5.82c.084-.033.084-.151 0-.184L14.106.235c-.023-.01-.05-.01-.072 0z" transform="translate(10 10) translate(1 6)"/>
                            <path stroke-linecap="round" d="M26.646 6.791L26.646 12.043M26.646 15L26.646 15.021" transform="translate(10 10) translate(1 6)"/>
                        </g>
                    </g>
                </g>
            </g>
        </g>
    </g>
</svg>
