<svg xmlns="http://www.w3.org/2000/svg" width="24" height="24" viewBox="0 0 24 24">
    <g fill="none" fill-rule="evenodd">
        <g>
            <g>
                <path d="M0 28L28 28 28 0 0 0z" transform="translate(-168 -217) translate(166 215)"/>
                <path fill="#EB1E27" d="M15.167 15.167c0 .644-.523 1.166-1.167 1.166s-1.167-.522-1.167-1.166V9.333c0-.644.523-1.166 1.167-1.166s1.167.522 1.167 1.166v5.834zM14 19.833c-.644 0-1.167-.522-1.167-1.166 0-.645.523-1.167 1.167-1.167s1.167.522 1.167 1.167c0 .644-.523 1.166-1.167 1.166zm0-17.5C7.556 2.333 2.333 7.557 2.333 14c0 6.442 5.223 11.667 11.667 11.667 6.442 0 11.667-5.225 11.667-11.667 0-6.443-5.225-11.667-11.667-11.667z" transform="translate(-168 -217) translate(166 215)"/>
            </g>
        </g>
    </g>
</svg>
