<svg xmlns="http://www.w3.org/2000/svg" width="45" height="45" viewBox="0 0 45 45">
    <g fill="none" fill-rule="evenodd">
        <g>
            <g transform="translate(-115 -343) translate(115 343)">
                <circle cx="22.5" cy="22.5" r="22.5" fill="#E0EDFD"/>
                <g>
                    <path stroke="#2F3043" stroke-width="2" d="M25.233 8.855C24.167 4.035 22.585.96 20.05.212c-.49-.143-1-.214-1.51-.212-1.559 0-2.788.927-5.563.927S8.972 0 7.416 0C6.883-.003 6.353.069 5.84.212 3.302.962 1.734 4.038.656 8.855c-1.1 4.92-.901 8.807 1.25 9.553 1.507.521 2.854-.557 4.13-2.144 1.448-1.808 3.232-2.364 6.942-2.364s5.424.556 6.875 2.364c1.275 1.588 2.672 2.653 4.138 2.153 2.377-.812 2.343-4.585 1.242-9.562z" transform="translate(10 13)"/>
                    <path fill="#2F3043" d="M15.064 6.258c.64 0 1.159.518 1.159 1.158 0 .64-.52 1.16-1.16 1.16-.64 0-1.158-.52-1.158-1.16 0-.64.519-1.158 1.159-1.158M17.613 11.124c-.64 0-1.159-.518-1.159-1.158 0-.64.52-1.16 1.16-1.16.64 0 1.158.52 1.158 1.16v.003c-.002.638-.52 1.155-1.159 1.155M17.613 3.708c.64 0 1.159.519 1.159 1.159s-.519 1.159-1.159 1.159-1.159-.52-1.159-1.159c0-.64.52-1.159 1.16-1.159M20.162 6.258c.64 0 1.16.518 1.16 1.158 0 .64-.52 1.16-1.16 1.16-.64 0-1.158-.52-1.158-1.16 0-.64.518-1.158 1.158-1.158" transform="translate(10 13)"/>
                    <path stroke="#2F3043" stroke-linecap="round" stroke-linejoin="round" stroke-width="2" d="M7.437 4.635L7.437 10.197M10.197 7.437L4.635 7.437" transform="translate(10 13)"/>
                </g>
            </g>
        </g>
    </g>
</svg>
