<svg xmlns="http://www.w3.org/2000/svg" width="112" height="50" viewBox="0 0 112 50">
    <g fill="none" fill-rule="evenodd">
        <g>
            <g transform="translate(-145 -576) translate(145 576)">
                <rect width="112" height="50" fill="#FFE7CC" rx="8"/>
                <text fill="#FF0032" font-family="Roboto-Regular, Roboto" font-size="12">
                    <tspan x="49" y="29">Health</tspan>
                </text>
                <g>
                    <g>
                        <g>
                            <path d="M0 0H30V30H0z" transform="translate(10 10)"/>
                        </g>
                    </g>
                    <path stroke="#FF0032" stroke-width="2.28" d="M15 25c-.32.002-.626-.121-.852-.341l-9.323-9.154c-2.433-2.411-2.433-6.294 0-8.706C7.279 4.4 11.25 4.4 13.704 6.8L15 8.07l1.295-1.27c2.454-2.399 6.425-2.399 8.88 0 2.434 2.412 2.434 6.295 0 8.706L15.85 24.66c-.226.22-.532.343-.851.341z" transform="translate(10 10)"/>
                    <g stroke="#FF0032" stroke-linecap="round" stroke-linejoin="round" stroke-width="2">
                        <path d="M3.009 0L3.009 5.981M5.981 3.009L0 3.009" transform="translate(10 10) translate(12 12)"/>
                    </g>
                </g>
            </g>
        </g>
    </g>
</svg>
