<svg xmlns="http://www.w3.org/2000/svg" width="30" height="30" viewBox="0 0 30 30">
    <g fill="none" fill-rule="evenodd">
        <g>
            <g>
                <g fill="#FFF">
                    <g>
                        <g>
                            <path d="M0 0H30V30H0z" transform="translate(-20 -859) translate(20 859)"/>
                        </g>
                    </g>
                </g>
                <g stroke="#2F3043" stroke-linecap="round" stroke-linejoin="round" stroke-width="2">
                    <path d="M11.2 0c6.185 0 11.2 5.014 11.2 11.2 0 6.185-5.015 11.2-11.2 11.2C5.014 22.4 0 17.385 0 11.2 0 5.014 5.014 0 11.2 0z" transform="translate(-20 -859) translate(20 859) translate(4 4)"/>
                    <path d="M11.2 6.72c2.474 0 4.48 2.006 4.48 4.48 0 2.474-2.006 4.48-4.48 4.48-2.474 0-4.48-2.006-4.48-4.48 0-2.474 2.006-4.48 4.48-4.48zM3.282 3.281L8.031 8.03M14.37 14.37L19.119 19.118M14.37 8.031L19.119 3.282M14.37 8.031L18.323 4.077M3.282 19.118L8.031 14.37" transform="translate(-20 -859) translate(20 859) translate(4 4)"/>
                </g>
            </g>
        </g>
    </g>
</svg>
