<svg xmlns="http://www.w3.org/2000/svg" xmlns:xlink="http://www.w3.org/1999/xlink" width="105" height="24" viewBox="0 0 105 24">
    <defs>
        <path id="fii7lh9rwa" d="M0 0.415L104.941 0.415 104.941 23.52 0 23.52z"/>
    </defs>
    <g fill="none" fill-rule="evenodd" opacity=".9">
        <g>
            <g>
                <path fill="#FFF" d="M65.204 8.536c.35-.398.583-.738.701-1.018s.177-.59.177-.925c0-.337-.07-.591-.214-.766-.144-.174-.34-.261-.59-.261-.26 0-.463.09-.606.27-.144.18-.215.433-.215.757 0 .224.053.483.158.775.106.293.303.682.59 1.168M18.059 6.107h-1.196v5.046h1.196c.46 0 .778-.152.953-.457.174-.306.261-.757.261-1.355s-.084-2.486-.252-2.785c-.168-.3-.489-.449-.962-.449M64.037 12.917c-.144.318-.215.645-.215.982 0 .398.09.703.27.915.181.212.427.318.739.318.249 0 .48-.069.691-.206.211-.137.448-.386.71-.747l-1.439-2.354c-.361.41-.613.775-.756 1.092M9.856 6.107H8.734v4.958h1.122c.485 0 .825-.161 1.018-.485.193-.324.29-.828.29-1.513 0-.686-.097-2.15-.29-2.474-.193-.324-.533-.486-1.018-.486M33.68 6.126h-1.232v9.243h1.233c.436 0 .77-.168 1-.505.23-.336.345-.803.345-1.401v-5.32c0-.66-.112-1.161-.336-1.503-.224-.343-.56-.514-1.01-.514" transform="translate(-128 -38) translate(128 38)"/>
                <g transform="translate(-128 -38) translate(128 38) translate(0 .065)">
                    <mask id="v726e0l65b" fill="#fff">
                        <use xlink:href="#fii7lh9rwa"/>
                    </mask>
                    <path fill="#FFF" d="M57.956.415L76.52.433h28.388s.393 1.907-1.527 4.12c0 0-1.373 1.464-1.428 3.314-.08 2.652-.008 14.45 0 15.568v.085s-21.497-3.923-49.482-4.327l-.838.013c-27.576.47-48.645 4.314-48.645 4.314s.083-12.868 0-15.653C2.933 6.017 1.56 4.553 1.56 4.553-.36 2.34.033.433.033.433h54.269l3.654-.018zM9.93 3.987H6.455V20.55c.67-.103 1.432-.217 2.28-.34v-7.136H9.93c1.246 0 2.146-.337 2.7-1.01.554-.672.831-1.693.831-3.063 0-1.358-.27-3.334-.813-4.006-.54-.673-1.447-1.01-2.718-1.01zm83.566 0h-2.299l-.033 15.541c.84.107 1.639.212 2.392.313l-.06-9.838 4.04 10.404c.292.043.568.086.832.126l.116-16.546h-2.297v7.175l-2.691-7.175zm-75.418 0h-3.513v15.442c.736-.091 1.503-.184 2.298-.277v-6.009h1.102l2.396 5.616c.731-.078 1.48-.156 2.25-.233l-2.553-5.812c.535-.287.922-.716 1.158-1.29.237-.572.355-1.288.355-2.148 0-1.345-.264-3.763-.794-4.373-.529-.61-1.429-.916-2.7-.916zm71.474 0h-2.279v15.071c.787.09 1.547.18 2.28.27V3.987zm-13.285 0h-2.336l2.488 13.995c.672.056 1.333.113 1.984.171l1.713-9.196 1.74 9.522c.577.057 1.145.115 1.703.172L86.3 3.987h-2.298l-1.252 9.64-1.215-9.64h-2.802l-1.215 9.64-1.251-9.64zm-47.352 0h-5.754V18.47c1.823-.18 3.745-.356 5.754-.522v-2.166H25.44V11.83h2.99V9.773h-2.99V6.061h3.475V3.987zm4.822 0h-3.569v13.372h3.457c1.096 0 1.986-.315 2.671-.943.685-.63 1.028-1.548 1.028-2.756V7.686c0-1.22-.327-2.142-.98-2.765-.655-.623-1.524-.934-2.607-.934zM65.279 3.8c-.86 0-1.557.262-2.092.785-.537.523-.804 1.208-.804 2.055 0 .486.103.969.308 1.448.206.48.552 1.118 1.037 1.915-.747.798-1.28 1.51-1.597 2.14-.318.629-.477 1.267-.477 1.915 0 .909.268 1.638.804 2.186.535.548 1.24.822 2.11.822.574 0 1.079-.097 1.514-.29.436-.193.828-.513 1.177-.962.262.411.502.691.72.841.218.15.532.224.944.224h.896v-1.887h-.224c-.174 0-.32-.038-.44-.112-.117-.075-.227-.2-.326-.374l-.337-.56 1.346-2.093-1.55-1.065-.86 1.382-1.14-1.905c.673-.722 1.152-1.37 1.439-1.943.286-.573.43-1.134.43-1.682 0-.847-.269-1.532-.804-2.055-.536-.523-1.227-.785-2.074-.785zm-18.798 0c-1.121 0-2.025.315-2.71.943-.684.63-1.027 1.555-1.027 2.775v5.811c0 1.208.324 2.127.971 2.756.648.63 1.527.944 2.635.944 1.083 0 1.971-.315 2.662-.944.692-.629 1.037-1.566 1.037-2.812v-.355h-2.28v.336c0 .56-.12.985-.363 1.27-.243.287-.57.43-.981.43-.922 0-1.383-.628-1.383-1.886V7.892c0-.672.109-1.177.327-1.513.218-.336.57-.505 1.056-.505.41 0 .738.14.981.42.242.281.364.714.364 1.3v.373h2.299v-.393c0-1.27-.331-2.217-.991-2.84-.66-.622-1.526-.934-2.597-.934zm-5.307.187h-2.28V16.88h2.28V3.987zm16.425 0h-6.746v2.074h2.243v10.818h2.279V6.061h2.224V3.987z" mask="url(#v726e0l65b)"/>
                </g>
            </g>
        </g>
    </g>
</svg>
