<svg xmlns="http://www.w3.org/2000/svg" width="20" height="16" viewBox="0 0 20 16">
    <g fill="none" fill-rule="evenodd" opacity=".6">
        <g>
            <g>
                <path d="M0 0L20 0 20 20 0 20z" transform="translate(-16 -114) translate(16 112)"/>
                <path fill="#FFF" fill-rule="nonzero" d="M10.833 14.115v1.718H15V17.5H5v-1.667h4.167v-1.718c-3.334-.42-5.834-3.255-5.834-6.615v-5h13.334v5c0 3.36-2.5 6.195-5.834 6.615zM5 4.167V7.5c0 2.761 2.239 5 5 5s5-2.239 5-5V4.167H5zm-4.167 0H2.5V7.5H.833V4.167zm16.667 0h1.667V7.5H17.5V4.167z" transform="translate(-16 -114) translate(16 112)"/>
            </g>
        </g>
    </g>
</svg>
