<svg xmlns="http://www.w3.org/2000/svg" xmlns:xlink="http://www.w3.org/1999/xlink" width="276" height="103" viewBox="0 0 276 103">
    <defs>
        <path id="prefix__a" d="M0 0.23L88.136 0.23 88.136 34.77 0 34.77z"/>
        <path id="prefix__c" d="M0 0.371L88.136 0.371 88.136 5.49 0 5.49z"/>
        <path id="prefix__e" d="M0.602 0.368L61.297 0.368 61.297 61.062 0.602 61.062z"/>
    </defs>
    <g fill="none" fill-rule="evenodd">
        <path fill="#FFC09C" d="M51.064 60.937c-1.815 2.493-4.186 3.877-6.648 3.877h-.696c-2.46 0-4.833-1.384-6.648-3.877l-.482-.663v6.583l-1.802.715.743 1.064c1.947 2.79 5.135 4.453 8.537 4.453 3.403 0 6.591-1.663 8.538-4.453l.742-1.064-1.801-.715v-6.583l-.483.663z"/>
        <path fill="#3D2E46" d="M43.72 64.814h.696c2.462 0 4.833-1.384 6.648-3.877l.483-.663v-8.729H36.59v8.73l.483.662c1.814 2.493 4.186 3.877 6.647 3.877"/>
        <g transform="translate(0 67.342)">
            <mask id="prefix__b" fill="#fff">
                <use xlink:href="#prefix__a"/>
            </mask>
            <path fill="#C297FF" d="M85.246 22.934c-1.705-6.983-6.689-12.708-13.371-15.357L53.348.23l-.742 1.064c-1.947 2.79-5.135 4.453-8.538 4.453-3.402 0-6.59-1.663-8.537-4.453L34.788.23 16.261 7.577C9.58 10.227 4.596 15.95 2.891 22.934L0 34.77h88.136l-2.89-11.836z" mask="url(#prefix__b)"/>
        </g>
        <path fill="#7860C5" d="M2.89 90.276l-.39 1.598h83.136l-.39-1.598c-.297-1.216-.7-2.39-1.187-3.52H4.077c-.488 1.13-.89 2.304-1.187 3.52"/>
        <g transform="translate(0 96.622)">
            <mask id="prefix__d" fill="#fff">
                <use xlink:href="#prefix__c"/>
            </mask>
            <path fill="#7860C5" d="M0 5.49L44.068 5.49 88.136 5.49 86.887 0.371 1.25 0.371z" mask="url(#prefix__d)"/>
        </g>
        <path fill="#7860C5" d="M53.348 67.572l-.742 1.064c-.776 1.112-1.752 2.042-2.858 2.762h13.248l-9.648-3.826zM35.53 68.636l-.742-1.064-9.648 3.826h13.248c-1.106-.72-2.082-1.65-2.858-2.762M7.165 81.636h73.806c-1.633-2.028-3.618-3.765-5.878-5.12h-62.05c-2.26 1.355-4.245 3.092-5.878 5.12"/>
        <g fill="#3D2E46">
            <path d="M40.085.765c-1.32 1.12-2.954 2.188-4.835 2.939-1.874.756-3.984 1.192-6.087 1.15-2.102-.046-4.192-.57-6.033-1.403-1.848-.829-3.435-1.965-4.708-3.138.837 1.511 2.246 3.072 4.125 4.227 1.868 1.161 4.197 1.911 6.582 1.96 2.385.05 4.744-.6 6.658-1.684 1.926-1.076 3.398-2.576 4.298-4.05M3.299 30.824c.63-2.997.771-7.054.195-11.033-.557-3.981-1.825-7.838-3.267-10.54.522 3.02 1.28 6.865 1.824 10.746.56 3.877.905 7.78 1.248 10.827M56.778 30.824c-.63-2.997-.772-7.054-.195-11.033.557-3.981 1.825-7.838 3.266-10.54-.521 3.02-1.279 6.865-1.824 10.746-.56 3.877-.905 7.78-1.247 10.827M50.498 21.571c-3.07.92-6.718 1.48-10.594 1.357-3.872-.108-7.95-.867-11.838-2.195-3.895-1.334-7.6-3.2-10.941-5.219-3.345-2.018-6.335-4.175-8.91-6.082 2.244 2.284 5.026 4.76 8.295 7.03 3.263 2.268 7.032 4.313 11.068 5.696 4.037 1.38 8.323 2.044 12.33 1.9 4.01-.127 7.705-1.098 10.59-2.487" transform="translate(14.03 70.392)"/>
            <path d="M47.98 14.068c-2.479 1.298-5.723 2.753-9.15 3.63-3.422.906-6.963 1.219-9.76 1.295 1.342.392 2.96.648 4.7.663 1.74.018 3.598-.203 5.395-.67 1.796-.469 3.527-1.181 5.036-2.046 1.512-.863 2.8-1.875 3.78-2.872" transform="translate(14.03 70.392)"/>
        </g>
        <path fill="#FFA688" d="M30.338 42.61c0 3.025-2.452 5.476-5.476 5.476s-5.474-2.451-5.474-5.475c0-3.024 2.45-5.475 5.474-5.475s5.476 2.451 5.476 5.475"/>
        <path fill="#FF8983" d="M27.957 42.61c0 1.71-1.385 3.095-3.094 3.095-1.71 0-3.095-1.385-3.095-3.094 0-1.71 1.385-3.095 3.095-3.095 1.709 0 3.094 1.386 3.094 3.095"/>
        <path fill="#FFA688" d="M57.799 42.61c0 3.025 2.451 5.476 5.475 5.476 3.024 0 5.475-2.451 5.475-5.475 0-3.024-2.451-5.475-5.475-5.475-3.024 0-5.475 2.451-5.475 5.475"/>
        <path fill="#FF8983" d="M60.18 42.61c0 1.71 1.385 3.095 3.094 3.095 1.71 0 3.094-1.385 3.094-3.094 0-1.71-1.385-3.095-3.094-3.095-1.71 0-3.095 1.386-3.095 3.095"/>
        <path fill="#FFC09C" d="M44.068 14.643c-9.213 0-16.681 7.469-16.681 16.682v9.75c0 6.188 2.598 12.092 7.16 16.274l.694.637c2.29 2.099 5.282 3.263 8.388 3.263h.878c3.106 0 6.1-1.164 8.389-3.263l.694-.637c4.562-4.182 7.16-10.086 7.16-16.275v-9.749c0-9.213-7.469-16.682-16.682-16.682"/>
        <path fill="#FFA358" d="M53.852 21.443c1.687-1.385 3.415 2.509 4.429 5.232.323.868.535 1.77.64 2.69l1.647 14.516 1.84-10.765c.53-4.431-.216-9.844-1.604-14.086-.414-1.264-.932-2.537-1.86-3.49-1.221-1.063-4.036-1.42-4.036-1.42.915-.572 1.824-1.036 2.738-1.608-2.446-2.136-6.016-3.297-9.24-2.92 1.068-1.245 2.475-2.197 4.028-2.726-3.852-.998-8.138-.652-11.696 1.13.43-1.044.947-2.038 1.377-3.083-4.473 1.317-7.95 5.05-9.302 9.512-1.266-.408-2.691.163-3.62 1.115-.928.953-1.447 2.226-1.861 3.49-1.388 4.242-2.133 9.655-1.604 14.086l1.84 10.765 1.636-14.408c.123-1.08.397-2.134.814-3.137.612-1.473 1.416-3.096 2.351-4.394.728-1.01 2.15-1.21 3.152-.473 2.528 1.857 5.474 3.642 8.415 3.602 3.587-.05 7.145-1.35 9.916-3.628"/>
        <path fill="#3D2E46" d="M38.127 37.136c0 .835-.677 1.513-1.513 1.513-.836 0-1.514-.678-1.514-1.513 0-.836.678-1.514 1.514-1.514s1.513.678 1.513 1.514M50.009 37.136c0 .835.678 1.513 1.513 1.513.837 0 1.514-.678 1.514-1.513 0-.836-.677-1.514-1.514-1.514-.835 0-1.513.678-1.513 1.514"/>
        <path fill="#FFA688" d="M46.828 44.718l-5.164.032c.309.434.539 1.005.937 1.357.399.353.896.618 1.428.64.546.023 1.077-.212 1.508-.547.432-.335.949-1.057 1.29-1.482"/>
        <path fill="#FFF" d="M49.95 48.374c-3.834.964-7.87 1.113-11.764.435.39 1.73 1.678 3.348 3.283 4.102 1.606.752 3.559.72 5.138-.085 1.58-.805 3.009-2.71 3.343-4.452"/>
        <path fill="#A13E4B" d="M35.931 30.526c-1.827.19-3.329 1.278-4.118 2.751 2.888-.44 5.798-.745 8.716-.91-1.078-1.28-2.771-2.032-4.598-1.841M52.206 30.526c1.827.19 3.328 1.278 4.118 2.751-2.89-.44-5.799-.745-8.717-.91 1.078-1.28 2.772-2.032 4.599-1.841"/>
        <path fill="#FFA688" d="M46.397 55.799c-.577-.59-1.387-.944-2.21-.969-.825-.025-1.654.28-2.266.831 1.413.053 3.062.084 4.476.138M39.627 39.159c-1.721-.5-4.47-.173-6.026.715 1.753.35 4.404.036 6.026-.715M48.51 39.159c1.72-.5 4.469-.173 6.025.715-1.752.35-4.403.036-6.025-.715"/>
        <path fill="#FFD994" d="M41.337 19.644c-.592-1.572-.602-3.384-.071-5.065.524-1.686 1.56-3.183 2.848-4.305 1.284-1.135 2.768-1.91 4.145-2.44-1.47.07-3.208.54-4.786 1.603-1.58 1.042-2.94 2.743-3.548 4.722-.303.987-.442 2.032-.361 3.053.02.31.068.615.129.915-.248-.454-.482-.919-.68-1.403-.556-1.35-.96-2.772-.971-4.123-.022-1.346.373-2.63 1.082-3.575-.977.67-1.755 2.003-1.922 3.527-.184 1.529.172 3.142.776 4.604.61 1.472 1.539 2.799 2.598 3.834.544.538 1.125.992 1.708 1.368.615.474 1.275.818 1.916.999-1.218-.832-2.289-2.132-2.863-3.714"/>
        <path fill="#FFD994" d="M46.125 12.997c-.94.636-1.783 1.576-2.309 2.69-.525 1.112-.716 2.36-.61 3.49.1 1.134.494 2.144.998 2.88-.247-.858-.405-1.853-.36-2.898.039-1.042.279-2.128.741-3.11.465-.98 1.152-1.856 1.931-2.55.78-.696 1.648-1.206 2.468-1.56-.888.078-1.92.414-2.859 1.058"/>
        <path fill="#3E4E6C" d="M178.877 90.276c-1.705-6.983-6.689-12.707-13.37-15.357l-8.146-3.23c.044.871-.06 1.762-.33 2.636l-8.54 27.787h33.277l-2.89-11.836z"/>
        <path fill="#B0B464" d="M146.238 68.636c-1.947 2.79-5.136 4.453-8.539 4.453-3.403 0-6.59-1.663-8.538-4.453l-.741-1.064 3.942 34.54h10.675l3.942-34.54-.741 1.064z"/>
        <path fill="#3E4E6C" d="M118.038 71.689l-8.145 3.23c-6.683 2.65-11.666 8.373-13.371 15.357l-2.891 11.836h33.277l-8.541-27.787c-.268-.874-.373-1.764-.33-2.636"/>
        <path fill="#4E617E" d="M130.221 66.858v-5.87l-8.11 4.297c-2.447 1.296-3.942 3.763-4.073 6.404-.044.872.06 1.762.33 2.636l8.54 27.787h5.454l-3.943-34.54 1.802-.714zM157.361 71.689c-.132-2.64-1.626-5.108-4.074-6.404l-8.11-4.297v5.87l1.802.714-3.942 34.54h5.454l8.54-27.787c.27-.874.373-1.764.33-2.636"/>
        <path fill="#3D2E46" d="M110.231 100.99c.562-2.86.543-6.761-.307-10.511-.824-3.757-2.465-7.295-4.188-9.646.899 2.776 2.035 6.318 2.834 9.948.82 3.625 1.296 7.313 1.661 10.21M165.168 100.99c-.562-2.86-.544-6.761.306-10.511.825-3.757 2.465-7.295 4.189-9.646-.9 2.776-2.036 6.318-2.834 9.948-.82 3.625-1.296 7.313-1.661 10.21"/>
        <path fill="#D56D67" d="M144.695 60.937c-1.814 2.493-4.186 3.877-6.647 3.877h-.696c-2.462 0-4.834-1.384-6.648-3.877l-.483-.663v6.583l-1.802.715.743 1.064c1.947 2.79 5.135 4.453 8.537 4.453 3.403 0 6.591-1.663 8.538-4.453l.742-1.064-1.801-.715v-6.583l-.483.663z"/>
        <path fill="#3D2E46" d="M137.352 64.814h.696c2.46 0 4.833-1.384 6.647-3.877l.483-.663v-8.729H130.22v8.73l.483.662c1.814 2.493 4.186 3.877 6.648 3.877"/>
        <g transform="translate(106.75 .242)">
            <mask id="prefix__f" fill="#fff">
                <use xlink:href="#prefix__e"/>
            </mask>
            <path fill="#3D2E46" d="M61.297 30.715c0 16.76-13.587 30.347-30.348 30.347C14.19 61.062.602 47.476.602 30.715.602 13.955 14.189.367 30.949.367c16.761 0 30.348 13.588 30.348 30.348" mask="url(#prefix__f)"/>
        </g>
        <path fill="#BE4E5A" d="M123.969 42.61c0 3.025-2.452 5.476-5.476 5.476-3.023 0-5.474-2.451-5.474-5.475 0-3.024 2.45-5.475 5.474-5.475s5.476 2.451 5.476 5.475"/>
        <path fill="#A13E4B" d="M121.588 42.61c0 1.71-1.385 3.095-3.094 3.095-1.71 0-3.095-1.385-3.095-3.094 0-1.71 1.386-3.095 3.095-3.095 1.709 0 3.094 1.386 3.094 3.095"/>
        <path fill="#BE4E5A" d="M151.43 42.61c0 3.025 2.451 5.476 5.476 5.476 3.023 0 5.474-2.451 5.474-5.475 0-3.024-2.45-5.475-5.474-5.475-3.025 0-5.476 2.451-5.476 5.475"/>
        <path fill="#A13E4B" d="M153.81 42.61c0 1.71 1.385 3.095 3.095 3.095 1.71 0 3.095-1.385 3.095-3.094 0-1.71-1.385-3.095-3.095-3.095-1.71 0-3.095 1.386-3.095 3.095"/>
        <path fill="#3D2E46" d="M119.298 40.35L121.018 40.35 122.145 30.488 118.494 30.488zM153.254 30.488L154.381 40.35 156.101 40.35 156.905 30.488z"/>
        <path fill="#D56D67" d="M137.7 21.185c-6.685 0-12.465 1.365-15.236 3.348-.927 2.076-1.446 4.372-1.446 6.792v9.75c0 6.188 2.598 12.092 7.16 16.274l.694.637c2.29 2.099 5.282 3.263 8.388 3.263h.879c3.106 0 6.098-1.164 8.388-3.263l.694-.637c4.563-4.182 7.16-10.086 7.16-16.275v-9.749c0-2.42-.52-4.716-1.446-6.792-2.77-1.983-8.55-3.348-15.236-3.348"/>
        <path fill="#3D2E46" d="M131.759 37.136c0 .835-.678 1.513-1.514 1.513s-1.513-.678-1.513-1.513c0-.836.677-1.514 1.513-1.514.836 0 1.514.678 1.514 1.514M143.64 37.136c0 .835.677 1.513 1.513 1.513.837 0 1.514-.678 1.514-1.513 0-.836-.677-1.514-1.514-1.514-.836 0-1.513.678-1.513 1.514"/>
        <path fill="#BE4E5A" d="M141.59 44.935c-2.556-.537-5.224-.538-7.781-.003.934 1.221 2.447 2.125 3.982 2.217 1.535.092 3.132-.829 3.8-2.214"/>
        <path fill="#3D2E46" d="M129.894 30.97c-2.033-.123-3.913.686-5.26 2.07 3.398.383 6.815.589 10.234.615-1.171-1.536-2.941-2.563-4.974-2.686M145.505 30.97c2.032-.123 3.913.686 5.26 2.07-3.398.383-6.816.589-10.235.615 1.172-1.536 2.942-2.563 4.975-2.686"/>
        <path fill="#FFF" d="M143.546 49.958c-3.815 1.012-7.843 1.208-11.737.572 1.26 2.05 3.647 3.509 6.054 3.457 2.405-.053 4.512-1.926 5.683-4.029M135.278 38.65c0-2.776-2.258-5.033-5.033-5.033-2.775 0-5.032 2.257-5.032 5.032s2.257 5.033 5.032 5.033 5.033-2.258 5.033-5.033M150.186 38.65c0-2.776-2.258-5.033-5.033-5.033-2.774 0-5.032 2.257-5.032 5.032s2.258 5.033 5.032 5.033c2.775 0 5.033-2.258 5.033-5.033"/>
        <path fill="#3E4E6C" d="M140.12 38.65c0-2.776 2.259-5.033 5.033-5.033 2.775 0 5.033 2.257 5.033 5.032s-2.258 5.033-5.033 5.033c-2.774 0-5.032-2.258-5.032-5.033m-14.908 0c0-2.775 2.257-5.032 5.032-5.032s5.033 2.257 5.033 5.032-2.258 5.033-5.033 5.033c-2.775 0-5.032-2.258-5.032-5.033m19.94-6.252c-2.754 0-5.092 1.791-5.924 4.268-.418-.282-.947-.458-1.53-.458-.583 0-1.111.176-1.53.458-.832-2.477-3.17-4.268-5.924-4.268-3.448 0-6.252 2.804-6.252 6.252s2.804 6.253 6.252 6.253 6.253-2.805 6.253-6.253c0-.156-.013-.309-.024-.462h.024c0-.36.493-.76 1.201-.76.708 0 1.202.4 1.202.76h.023c-.01.153-.023.306-.023.462 0 3.448 2.805 6.253 6.252 6.253 3.448 0 6.253-2.805 6.253-6.253s-2.805-6.252-6.253-6.252"/>
        <path fill="#FFF" d="M128.058 36.379c0 .418-.34.757-.757.757-.418 0-.756-.34-.756-.757 0-.418.338-.756.756-.756s.757.338.757.756M126.909 37.834c0 .202-.163.364-.365.364-.2 0-.363-.162-.363-.364 0-.201.163-.364.363-.364.202 0 .365.163.365.364M143.003 36.379c0 .418-.34.757-.756.757-.419 0-.757-.34-.757-.757 0-.418.338-.756.757-.756.417 0 .756.338.756.756M141.853 37.834c0 .202-.163.364-.364.364-.2 0-.363-.162-.363-.364 0-.201.162-.364.363-.364.201 0 .364.163.364.364"/>
        <path fill="#3D2E46" d="M145.543 50.746l-1.266 3.788c-.358 1.074-1.403 1.764-2.532 1.672l-.543-.044c-.83-.067-1.605-.445-2.168-1.058h-2.593c-.563.613-1.338.99-2.168 1.058l-.543.044c-1.128.092-2.174-.598-2.532-1.672l-1.266-3.788c-.236-.705.34-1.415 1.079-1.33l2.643.307c1.332.155 2.682 0 3.944-.453l.102-.037.178.037c1.262.452 2.611.608 3.943.453l2.643-.306c.738-.086 1.314.624 1.079 1.329zm8.914-10.396l-2.424 6.806c-.278.781-1.184 1.136-1.919.751l-1.724-.9c-1.073-.562-2.29-.791-3.495-.657l-7.195.8-7.12-.8c-1.205-.134-2.422.095-3.496.656l-1.723.901c-.735.385-1.64.03-1.919-.751l-2.424-6.806h-1.72v4.244c0 3.976 1.073 7.879 3.107 11.295l.5.84c2.482 4.17 6.977 6.724 11.83 6.724h6.005c4.853 0 9.348-2.554 11.83-6.724l.5-.84c2.034-3.416 3.108-7.32 3.108-11.295V40.35h-1.721z"/>
        <path fill="#BE4E5A" d="M258.193 45.745c-1.155-3.392-3.004-6.556-3.733-10.065-.615-2.961-.4-6.024-.595-9.042-.195-3.018-.887-6.178-2.95-8.389-2.064-2.212-6.727-3.468-9.054-1.538l-14.695 1.018.372 3.39c5.342.613 10.372 2.102 13.56 6.043 5.718 7.07 9.982 15.584 10.676 24.65.574 7.479-1.552 15.318-6.278 21.048h6.352c6.934-6.9 9.497-17.855 6.345-27.115"/>
        <path fill="#D56D67" d="M251.093 31.374c.052-1.037-.01-2.248-.292-3.517-.279-1.265-.79-2.592-1.588-3.758-.8-1.17-1.894-2.134-3.081-2.73-1.184-.604-2.455-.805-3.485-.67 1.023.198 2.11.626 3.11 1.311 1.002.68 1.919 1.596 2.64 2.647 1.46 2.124 2.15 4.72 2.696 6.717M250.236 70.325c1.922-2.235 3.742-5.801 4.515-9.64.81-3.833.552-7.828-.327-10.642-.053 2.952-.278 6.697-1.048 10.357-.743 3.666-2.02 7.194-3.14 9.925M254.82 65.919l-.203.26.084.044c1.064-1.518 1.997-3.778 2.327-6.14.353-2.358.102-4.762-.474-6.467.01 1.802-.046 4.08-.397 6.338-.334 2.26-.966 4.472-1.54 6.226l.083.045.12-.306"/>
        <path fill="#A13E4B" d="M251.774 51.812c-.695-9.066-4.958-17.58-10.676-24.65-3.189-3.942-8.219-5.43-13.56-6.043l5.678 51.74h12.28c4.726-5.73 6.852-13.569 6.278-21.047"/>
        <path fill="#A13E4B" d="M217.466 26.73c-1.826 2.627-3.652 5.255-5.477 7.884-1.746 2.512-3.499 5.037-4.838 7.788-3.77 7.745-7.557 18.614 4.46 29.31h19.011V25.761l-13.156.968z"/>
        <path fill="#FFA68E" d="M238.327 60.937c-1.815 2.493-4.187 3.877-6.648 3.877h-.696c-2.461 0-4.834-1.384-6.648-3.877l-.483-.663v6.583l-1.801.715.742 1.064c1.947 2.79 5.135 4.453 8.538 4.453 3.402 0 6.59-1.663 8.538-4.453l.742-1.064-1.802-.715v-6.583l-.482.663z"/>
        <path fill="#3D2E46" d="M230.983 64.814h.696c2.461 0 4.833-1.384 6.648-3.877l.482-.663v-8.729h-14.956v8.73l.482.662c1.814 2.493 4.187 3.877 6.648 3.877"/>
        <path fill="#FF8983" d="M217.6 42.61c0 3.025-2.451 5.476-5.475 5.476-3.024 0-5.475-2.451-5.475-5.475 0-3.024 2.45-5.475 5.475-5.475 3.024 0 5.475 2.451 5.475 5.475"/>
        <path fill="#FB7375" d="M215.22 42.61c0 1.71-1.385 3.095-3.095 3.095-1.71 0-3.095-1.385-3.095-3.094 0-1.71 1.386-3.095 3.095-3.095 1.71 0 3.095 1.386 3.095 3.095"/>
        <path fill="#FF8983" d="M245.061 42.61c0 3.025 2.452 5.476 5.476 5.476s5.475-2.451 5.475-5.475c0-3.024-2.451-5.475-5.475-5.475-3.024 0-5.476 2.451-5.476 5.475"/>
        <path fill="#FB7375" d="M247.442 42.61c0 1.71 1.385 3.095 3.095 3.095 1.709 0 3.094-1.385 3.094-3.094 0-1.71-1.385-3.095-3.094-3.095-1.71 0-3.095 1.386-3.095 3.095"/>
        <path fill="#FFA68E" d="M231.33 21.745c-9.213 0-16.68.367-16.68 9.58v9.75c0 6.188 2.597 12.092 7.16 16.274l.693.637c2.29 2.099 5.282 3.263 8.389 3.263h.878c3.106 0 6.099-1.164 8.388-3.263l.695-.637c4.562-4.182 7.16-10.086 7.16-16.275v-9.749c0-9.213-7.469-9.58-16.682-9.58"/>
        <path fill="#3D2E46" d="M225.39 37.136c0 .835-.677 1.513-1.513 1.513-.837 0-1.514-.678-1.514-1.513 0-.836.677-1.514 1.514-1.514.836 0 1.513.678 1.513 1.514M237.272 37.136c0 .835.677 1.513 1.513 1.513.836 0 1.514-.678 1.514-1.513 0-.836-.678-1.514-1.514-1.514s-1.513.678-1.513 1.514"/>
        <path fill="#FF8983" d="M233.908 44.97c-1.828-.365-3.735-.332-5.55.094.47 1.03 1.532 1.886 2.664 1.886 1.131 0 2.415-.95 2.886-1.98"/>
        <path fill="#BE4E5A" d="M238.791 30.724c-1.691.014-3.184.837-4.125 2.094l8.286-.07c-.962-1.242-2.468-2.038-4.16-2.024M223.859 30.724c-1.692.014-3.184.837-4.126 2.094l8.286-.07c-.962-1.242-2.468-2.038-4.16-2.024"/>
        <path fill="#FFF" d="M235.665 49.198c-2.982 1.347-6.448 1.59-9.588.671 1.181 1.42 3.05 2.51 4.891 2.348 1.84-.16 3.78-1.416 4.697-3.02"/>
        <path fill="#FFC067" d="M272.509 90.276c-1.706-6.983-6.69-12.707-13.371-15.357l-18.527-7.347-.742 1.064c-1.947 2.79-5.136 4.453-8.538 4.453-3.403 0-6.591-1.663-8.538-4.453l-.742-1.064-18.527 7.347c-6.682 2.65-11.666 8.374-13.371 15.357l-2.89 11.836h88.136l-2.89-11.836z"/>
        <path fill="#0096AA" d="M216.033 69.958l15.1 23.767v8.387H203.46l1.185-12.56c.166-1.756.048-3.528-.348-5.246l-2.04-8.837 13.777-5.51zM246.313 69.833l-15.18 23.892v8.387h27.674l-1.185-12.56c-.166-1.756-.048-3.528.348-5.246l2.042-9.019-13.7-5.454z"/>
        <g fill="#3D2E46">
            <path d="M44.158.645c-1.055 1.224-2.448 2.403-4.124 3.254-1.668.854-3.61 1.378-5.55 1.37-1.943-.012-3.878-.556-5.538-1.427-1.667-.868-3.048-2.061-4.09-3.297.599 1.498 1.786 3.093 3.487 4.28 1.687 1.192 3.878 1.97 6.132 1.983 2.254.01 4.453-.745 6.152-1.92 1.713-1.17 2.917-2.752 3.53-4.243M44.188 15.831c-1.98-.076-4.218-.199-6.57-.486-2.352-.284-4.815-.73-7.236-1.35-2.42-.625-4.793-1.423-6.99-2.308-2.199-.884-4.22-1.855-5.99-2.744 1.401 1.396 3.232 2.81 5.378 4.016 2.141 1.208 4.592 2.203 7.133 2.86 2.543.65 5.169.96 7.628.935 2.46-.02 4.747-.376 6.647-.923M58.715 12.152c-2.467 1.645-5.246 3.635-8.293 5.591-3.046 1.954-6.384 3.853-9.933 5.214-3.536 1.35-7.31 2.086-10.877 2.058-3.57-.007-6.898-.852-9.551-2.18 2.407 1.728 5.787 2.983 9.51 3.224 3.719.267 7.718-.388 11.416-1.801 3.693-1.417 7.074-3.483 10.026-5.653 2.958-2.177 5.524-4.445 7.702-6.453M7.558 24.321c.41-1.974.212-4.542-.495-6.955-.7-2.417-1.89-4.674-3.246-6.162.046 2.015.536 4.417 1.212 6.753.684 2.335 1.543 4.608 2.529 6.364M7.558 24.321c-.77-1.288-1.934-2.674-3.177-3.98-1.246-1.302-2.578-2.528-3.828-3.357.399 1.445 1.387 3.087 2.689 4.445 1.296 1.364 2.892 2.427 4.316 2.892M62.264 24.321c.987-1.756 1.845-4.029 2.528-6.364.677-2.336 1.167-4.738 1.213-6.753-1.356 1.488-2.546 3.745-3.246 6.162-.707 2.413-.905 4.981-.495 6.955M62.264 24.321c1.425-.465 3.02-1.528 4.316-2.892 1.302-1.358 2.29-3 2.689-4.445-1.25.829-2.582 2.055-3.828 3.358-1.244 1.305-2.407 2.69-3.177 3.98" transform="translate(196.42 69.782)"/>
        </g>
        <path fill="#BE4E5A" d="M241.86 16.816c-.495-3.326-2.928-6.166-5.927-7.618-2.999-1.451-6.486-1.633-9.757-1.037-8.423 1.532-15.653 8.418-17.673 16.832-1.318 5.492-.589 11.45-2.722 16.673-1.593 3.902-4.673 7.079-6.017 11.076-1.313 3.902-.774 8.397 1.423 11.867 2.198 3.471 6.371 6.678 10.424 7.103-4.623-4.647-6.058-11.973-4.91-18.463 1.149-6.49 1.849-14.955 7.949-17.3 5.809-2.233 14.32-8.943 16.68-14.04l10.53-5.093z"/>
        <path fill="#D56D67" d="M209.58 29.239c2.137.287 4.749.023 7.299-1.02 1.271-.52 2.535-1.21 3.689-2.097 1.159-.873 2.215-1.971 3.104-3.07.9-1.095 1.717-2.18 2.617-3.08.889-.9 1.89-1.602 2.985-1.925 1.104-.332 2.308-.315 3.408-.035 1.11.272 2.101.84 2.901 1.567-.526-.938-1.41-1.839-2.58-2.408-1.16-.576-2.589-.864-4.06-.63-1.491.231-2.867 1.036-3.969 2.024-1.113.986-2.014 2.121-2.888 3.181-.871 1.073-1.737 2.024-2.728 2.876-.979.857-2.051 1.584-3.146 2.207-2.194 1.25-4.512 2.01-6.633 2.41"/>
        <path fill="#D56D67" d="M221.66 16c1.031-.57 2.225-1.167 3.545-1.61 1.316-.444 2.758-.72 4.192-.679 1.422.046 2.836.44 4.035 1.084 1.205.64 2.176 1.546 2.847 2.517-.327-1.13-1.162-2.351-2.4-3.228-1.227-.886-2.818-1.443-4.448-1.493-1.622-.049-3.217.369-4.547 1.022-1.337.652-2.424 1.525-3.223 2.388M207.534 68.978c-.823-1.261-1.65-2.741-2.307-4.397-.66-1.652-1.153-3.472-1.41-5.328-.249-1.857-.26-3.743-.067-5.512.19-1.77.592-3.418 1.048-4.853-.882 1.216-1.661 2.827-2.105 4.667-.45 1.836-.563 3.887-.293 5.891.275 2.003.934 3.95 1.86 5.597.918 1.655 2.1 2.999 3.274 3.935"/>
    </g>
</svg>
