<svg xmlns="http://www.w3.org/2000/svg" xmlns:xlink="http://www.w3.org/1999/xlink" width="58" height="58" viewBox="0 0 58 58">
    <defs>
        <path id="7q0ntuovca" d="M0 0.133L57.588 0.133 57.588 57.586 0 57.586z"/>
    </defs>
    <g fill="none" fill-rule="evenodd" opacity=".25">
        <g>
            <g>
                <g transform="translate(-151 -118) translate(151 118)">
                    <mask id="kcix6mbe0b" fill="#fff">
                        <use xlink:href="#7q0ntuovca"/>
                    </mask>
                    <path fill="#2F3043" d="M46.697 45.327c-.208.224-.558.238-.783.03-.024-.022-.047-.047-.067-.074-1.238-1.616-2.755-3-4.478-4.086-3.525-2.257-7.99-3.5-12.574-3.5-4.583 0-9.049 1.243-12.573 3.5-1.724 1.086-3.24 2.469-4.478 4.084-.183.245-.53.295-.775.112-.027-.02-.052-.043-.075-.067-4.062-4.375-6.363-10.09-6.462-16.053C4.207 15.835 15.26 4.588 28.736 4.554c13.476-.033 24.422 10.884 24.422 24.305.005 6.106-2.303 11.988-6.461 16.468M29.197.135C13.004-.083-.216 13.105.003 29.26c.216 15.493 12.86 28.107 28.391 28.323 16.196.221 29.413-12.967 29.191-29.122C57.372 12.966 44.727.351 29.197.135" mask="url(#kcix6mbe0b)"/>
                </g>
                <g fill="#2F3043">
                    <path d="M9.411 0C6.681 0 4.214 1.02 2.46 2.875.706 4.73-.17 7.295.028 10.046c.401 5.42 4.61 9.84 9.383 9.84 4.773 0 8.975-4.42 9.384-9.838.205-2.726-.664-5.267-2.447-7.156C14.588 1.027 12.123 0 9.411 0" transform="translate(-151 -118) translate(151 118) translate(19.384 13.393)"/>
                </g>
            </g>
        </g>
    </g>
</svg>
