<svg xmlns="http://www.w3.org/2000/svg" width="16" height="11" viewBox="0 0 16 11">
    <g fill="none" fill-rule="evenodd" opacity=".5">
        <g>
            <g>
                <g>
                    <path d="M0 0H20V20H0z" transform="translate(-326 -205) translate(324 201)"/>
                    <g fill="#2F3043">
                        <path d="M7.65.208c1.714 0 3.26.483 4.638 1.449 1.378.966 2.371 2.219 2.979 3.76-.608 1.54-1.6 2.794-2.979 3.76-1.378.965-2.924 1.448-4.638 1.448-1.715 0-3.266-.483-4.655-1.449C1.605 8.211.608 6.957 0 5.416c.608-1.54 1.606-2.793 2.995-3.76C4.384.692 5.935.209 7.65.209zm0 8.692c.955 0 1.768-.342 2.441-1.026.673-.683 1.01-1.502 1.01-2.457 0-.955-.337-1.774-1.01-2.458-.673-.684-1.486-1.025-2.441-1.025-.955 0-1.774.341-2.458 1.025-.684.684-1.025 1.503-1.025 2.458 0 .955.341 1.774 1.025 2.457C5.876 8.558 6.695 8.9 7.65 8.9zm-.017-5.567c.576 0 1.07.201 1.482.603.412.401.618.895.618 1.48 0 .587-.206 1.08-.618 1.482-.413.401-.906.602-1.482.602-.575 0-1.063-.2-1.464-.602-.402-.402-.603-.895-.603-1.481 0-.586.201-1.08.603-1.481.401-.402.89-.603 1.464-.603z" transform="translate(-326 -205) translate(324 201) translate(2.5 4.167)"/>
                    </g>
                </g>
            </g>
        </g>
    </g>
</svg>
