<svg xmlns="http://www.w3.org/2000/svg" width="16" height="14" viewBox="0 0 16 14">
    <g fill="none" fill-rule="evenodd" opacity=".5">
        <g>
            <g>
                <g>
                    <path d="M0 0H20V20H0z" transform="translate(-326 -204) translate(324 201)"/>
                    <g fill="#2F3043">
                        <g>
                            <path d="M7.65 2.767c-.434 0-.857.087-1.27.26L4.883 1.53c.89-.326 1.801-.488 2.734-.488 1.715 0 3.266.483 4.655 1.448 1.389.966 2.387 2.22 2.995 3.76-.5 1.302-1.291 2.398-2.376 3.288L10.872 7.52c.152-.413.228-.836.228-1.27 0-.955-.336-1.774-1.009-2.458-.673-.683-1.486-1.025-2.441-1.025zM.684.879L1.562 0 13.9 12.305l-.88.879-2.05-2.019-.293-.293c-.976.391-1.986.586-3.027.586-1.715 0-3.266-.483-4.655-1.448C1.605 9.044.608 7.79 0 6.25.543 4.861 1.41 3.71 2.604 2.8L.684.878zm3.84 3.841c-.238.5-.357 1.01-.357 1.53 0 .955.341 1.774 1.025 2.458.684.683 1.503 1.025 2.458 1.025.52 0 1.03-.13 1.53-.39L8.105 8.267c-.173.044-.325.065-.455.065-.586 0-1.08-.2-1.481-.602-.402-.401-.603-.895-.603-1.481 0-.152.011-.304.033-.456L4.525 4.72zm2.996-.553h.13c.564 0 1.052.206 1.465.618.412.412.618.9.618 1.465l-.032.13L7.52 4.167z" transform="translate(-326 -204) translate(324 201) translate(2.5 3.333)"/>
                        </g>
                    </g>
                </g>
            </g>
        </g>
    </g>
</svg>
