<svg xmlns="http://www.w3.org/2000/svg" width="50" height="50" viewBox="0 0 50 50">
    <g fill="none" fill-rule="evenodd">
        <g>
            <g transform="translate(-284 -280) translate(284 280)">
                <circle cx="25" cy="25" r="25" fill="#FFF"/>
                <g>
                    <path d="M0 0L24 0 24 24 0 24z" transform="translate(13 13)"/>
                    <path fill="#2F3043" fill-rule="nonzero" d="M17 20H7v1c0 .552-.448 1-1 1H4c-.552 0-1-.448-1-1v-9H2V8h1V5c0-1.105.895-2 2-2h14c1.105 0 2 .895 2 2v3h1v4h-1v9c0 .552-.448 1-1 1h-2c-.552 0-1-.448-1-1v-1zM5 5v6h14V5H5zm14 8H5v5h14v-5zM7.5 17c-.828 0-1.5-.672-1.5-1.5S6.672 14 7.5 14s1.5.672 1.5 1.5S8.328 17 7.5 17zm9 0c-.828 0-1.5-.672-1.5-1.5s.672-1.5 1.5-1.5 1.5.672 1.5 1.5-.672 1.5-1.5 1.5z" transform="translate(13 13)"/>
                </g>
            </g>
        </g>
    </g>
</svg>
