<svg xmlns="http://www.w3.org/2000/svg" width="50" height="50" viewBox="0 0 50 50">
    <g fill="none" fill-rule="evenodd">
        <g>
            <g transform="translate(-112 -452) translate(112 452)">
                <circle cx="25" cy="25" r="25" fill="#FFF"/>
                <g>
                    <path d="M0 0L24 0 24 24 0 24z" transform="translate(13 13)"/>
                    <path fill="#2F3043" fill-rule="nonzero" d="M12 20h8v2h-8C6.477 22 2 17.523 2 12S6.477 2 12 2s10 4.477 10 10c.003 2.164-.699 4.27-2 6h-2.708c2.898-2.556 3.555-6.817 1.562-10.127-1.993-3.31-6.067-4.722-9.682-3.356-3.614 1.366-5.735 5.12-5.041 8.92C4.825 17.238 8.136 20 12 20zm0-10c-1.105 0-2-.895-2-2s.895-2 2-2 2 .895 2 2-.895 2-2 2zm-4 4c-1.105 0-2-.895-2-2s.895-2 2-2 2 .895 2 2-.895 2-2 2zm8 0c-1.105 0-2-.895-2-2s.895-2 2-2 2 .895 2 2-.895 2-2 2zm-4 4c-1.105 0-2-.895-2-2s.895-2 2-2 2 .895 2 2-.895 2-2 2z" transform="translate(13 13)"/>
                </g>
            </g>
        </g>
    </g>
</svg>
