<svg xmlns="http://www.w3.org/2000/svg" width="14.2" height="14.201" viewBox="0 0 14.2 14.201">
    <g>
        <g>
            <g>
                <path fill="#e60000" stroke="#e60000" stroke-width="0.2px" d="M0 7a7 7 0 1 1 7 7 7.008 7.008 0 0 1-7-7zm.583 0A6.417 6.417 0 1 0 7 .583 6.424 6.424 0 0 0 .583 7zm5.974 3.5V5.323h.886V10.5zm.06-6.192a.51.51 0 0 1-.132-.359.529.529 0 0 1 .132-.363.5.5 0 0 1 .39-.149.5.5 0 0 1 .393.149.522.522 0 0 1 .134.363.5.5 0 0 1-.134.359.511.511 0 0 1-.393.144.5.5 0 0 1-.39-.144z" transform="translate(-2.9 -3.9) translate(3 4)"/>
            </g>
        </g>
    </g>
</svg>
