<svg xmlns="http://www.w3.org/2000/svg" width="30" height="30" viewBox="0 0 30 30">
    <g fill="none" fill-rule="evenodd">
        <g>
            <g>
                <g fill="#FFF">
                    <g>
                        <path d="M0 0H30V30H0z" transform="translate(-20 -724) translate(20 724)"/>
                    </g>
                </g>
                <path fill="#2F3043" fill-rule="nonzero" d="M24 16.242V23c.552 0 1 .448 1 1s-.448 1-1 1H6c-.552 0-1-.448-1-1s.448-1 1-1v-6.758c-1.25-.835-2-2.239-2-3.742 0-.827.224-1.624.633-2.303L7.345 5.5c.179-.31.509-.5.866-.5H21.79c.357 0 .687.19.866.5l2.702 4.682c1.24 2.058.641 4.727-1.358 6.06zm-2 .73c-1.394.156-2.78-.347-3.75-1.36-.848.887-2.022 1.39-3.25 1.389-1.227 0-2.401-.5-3.25-1.387-.97 1.013-2.356 1.516-3.75 1.359V23h14V16.972zM8.789 7l-2.433 4.213c-.49 1.212.035 2.596 1.206 3.177s2.592.162 3.26-.961c.335-.837 1.52-.837 1.856 0 .38.95 1.299 1.574 2.322 1.574 1.023 0 1.943-.624 2.322-1.574.335-.837 1.52-.837 1.856 0 .354.87 1.166 1.47 2.103 1.55.936.08 1.839-.372 2.336-1.17.496-.798.503-1.807.018-2.612L21.21 7H8.789z" transform="translate(-20 -724) translate(20 724)"/>
            </g>
        </g>
    </g>
</svg>
