<svg xmlns="http://www.w3.org/2000/svg" width="20" height="20" viewBox="0 0 20 20">
    <g fill="none" fill-rule="evenodd">
        <g>
            <g>
                <g>
                    <path fill="#FFF" stroke="#2F3043" d="M8.844 0c4.885 0 8.844 3.959 8.844 8.844s-3.959 8.844-8.844 8.844S0 13.729 0 8.844 3.959 0 8.844 0" transform="translate(-170 -167) translate(171 168)"/>
                </g>
                <g>
                    <path fill="#2F3043" d="M6.226.14C6.139.051 6.019 0 5.895 0H3.617c-.125 0-.244.051-.331.14l-.97 1c-.087.089-.206.14-.331.14H.462c-.255 0-.462.207-.462.462v6.84c0 .255.207.462.462.462h9.096c.256 0 .463-.207.463-.462v-6.84c0-.255-.207-.462-.463-.462h-2.03c-.125 0-.245-.05-.332-.14l-.97-1z" transform="translate(-170 -167) translate(171 168) translate(4 4)"/>
                    <path fill="#FFF" d="M5 3c1.105 0 2 .895 2 2s-.895 2-2 2-2-.895-2-2 .895-2 2-2" transform="translate(-170 -167) translate(171 168) translate(4 4)"/>
                </g>
            </g>
        </g>
    </g>
</svg>
