<svg xmlns="http://www.w3.org/2000/svg" width="45" height="45" viewBox="0 0 45 45">
    <g fill="none" fill-rule="evenodd">
        <g>
            <g transform="translate(-200 -343) translate(200 343)">
                <circle cx="22.5" cy="22.5" r="22.5" fill="#E0EDFD"/>
                <g>
                    <path stroke="#2F3043" stroke-linecap="round" stroke-width="2" d="M2.191 18.426c.067-.243-.08-.581-.218-.825-.044-.072-.09-.143-.141-.21C.637 15.577 0 13.455 0 11.284-.02 5.055 5.146 0 11.534 0c5.571 0 10.222 3.86 11.308 8.983.163.76.246 1.534.246 2.31 0 6.24-4.967 11.374-11.355 11.374-1.016 0-2.386-.255-3.134-.464-.747-.21-1.494-.487-1.686-.561-.198-.076-.407-.115-.618-.115-.23-.001-.459.045-.67.135L1.858 23.02c-.082.036-.17.059-.258.068-.295 0-.533-.24-.532-.535v-.006c.005-.061.016-.123.033-.182l1.09-3.939z" transform="translate(11 11)"/>
                    <path fill="#2F3043" d="M6.216 9.768c.98 0 1.776.795 1.776 1.776 0 .98-.795 1.776-1.776 1.776-.98 0-1.776-.795-1.776-1.776 0-.98.795-1.776 1.776-1.776M11.544 9.768c.98 0 1.776.795 1.776 1.776 0 .98-.795 1.776-1.776 1.776-.98 0-1.776-.795-1.776-1.776 0-.98.795-1.776 1.776-1.776M16.872 9.768c.98 0 1.776.795 1.776 1.776 0 .98-.795 1.776-1.776 1.776-.98 0-1.776-.795-1.776-1.776 0-.98.795-1.776 1.776-1.776" transform="translate(11 11)"/>
                </g>
            </g>
        </g>
    </g>
</svg>
