<svg xmlns="http://www.w3.org/2000/svg" width="19" height="19" viewBox="0 0 19 19">
    <g fill="none" fill-rule="evenodd">
        <rect width="18.9" height="18.9" fill="#FFF" fill-opacity=".7" rx="2.4"/>
        <g fill="#000">
            <path d="M7.29 0H.69C.315 0 0 .288 0 .63s.315.63.69.63h6.6c.375 0 .69-.288.69-.63S7.665 0 7.29 0M7.29 2.94H.69c-.375 0-.69.288-.69.63s.315.63.69.63h6.6c.375 0 .69-.288.69-.63s-.315-.63-.69-.63M5.196 5.88H.699c-.38 0-.699.288-.699.63s.319.63.699.63H5.18c.38 0 .698-.288.698-.63.016-.356-.303-.63-.683-.63" transform="translate(5.46 5.88)"/>
        </g>
    </g>
</svg>
