<svg xmlns="http://www.w3.org/2000/svg" width="28" height="28" viewBox="0 0 28 28">
    <g fill="none" fill-rule="evenodd">
        <g>
            <g>
                <path d="M0 0L32 0 32 32 0 32z" transform="translate(-166 -226) translate(164 224)"/>
                <path fill="#EE2737" fill-rule="nonzero" d="M16 2.667c7.364 0 13.333 5.969 13.333 13.333S23.364 29.333 16 29.333 2.667 23.364 2.667 16h2.666c0 5.89 4.776 10.667 10.667 10.667 5.89 0 10.667-4.776 10.667-10.667 0-5.89-4.776-10.667-10.667-10.667-3.667 0-6.901 1.85-8.82 4.667h3.487v2.667h-8v-8h2.666V8C7.765 4.76 11.64 2.667 16 2.667zm1.333 6.666v6.114l4.324 4.324-1.886 1.886-5.104-5.106V9.333h2.666z" transform="translate(-166 -226) translate(164 224)"/>
            </g>
        </g>
    </g>
</svg>
