<svg xmlns="http://www.w3.org/2000/svg" width="102" height="30" viewBox="0 0 102 30">
    <g fill="none" fill-rule="evenodd">
        <g>
            <g>
                <path fill="#EE2737" d="M25.472 19.769h7.034V0h-7.034v19.769zM16.14 0l-4.554 18.42L7.034 0H0l4.887 19.769h13.401L23.175 0H16.14z" transform="translate(-62 -40) translate(62 40.113)"/>
                <path fill="#FFC600" d="M32.818 25.895c0 2.114-1.715 3.829-3.83 3.829-2.114 0-3.828-1.715-3.828-3.83 0-2.114 1.714-3.828 3.829-3.828 2.114 0 3.829 1.714 3.829 3.829" transform="translate(-62 -40) translate(62 40.113)"/>
                <path fill="#EE2737" d="M34.073.297L33.538.297 33.538.009 34.938.009 34.938.297 34.406.297 34.406 1.775 34.073 1.775zM35.13.009L35.513.009 36.048 1.314 36.583.009 36.967.009 36.967 1.775 36.656 1.775 36.656.604 36.174 1.775 35.922 1.775 35.44.604 35.44 1.775 35.13 1.775z" transform="translate(-62 -40) translate(62 40.113)"/>
                <path fill="#EE2737" fill-rule="nonzero" d="M46.392 15.888c1.888 0 3.136-1.008 3.136-2.544 0-3.648-4.416-1.776-4.416-3.424 0-.512.432-.784 1.056-.784.608 0 1.232.368 1.328 1.056h1.936c-.08-1.584-1.392-2.624-3.328-2.624-1.648 0-2.88 1.008-2.88 2.432 0 3.392 4.336 1.776 4.336 3.424 0 .448-.48.784-1.168.784-.832 0-1.392-.448-1.472-1.168H43c.08 1.744 1.424 2.848 3.392 2.848zm8.096 0c1.984 0 3.52-1.12 3.84-2.864h-2.176c-.176.688-.768 1.04-1.664 1.04-1.12 0-1.84-.704-2-1.84h5.792c.016-.176.032-.416.032-.72 0-1.84-1.136-3.936-3.984-3.936-2.736 0-3.984 2.096-3.984 4.144 0 2.032 1.408 4.176 4.144 4.176zm1.6-5.072H52.52c.192-1.12.8-1.616 1.808-1.616 1.072 0 1.696.72 1.76 1.616zm5.696 4.944v-3.92c0-1.376.496-2.288 1.6-2.288h1.328V7.696H63.8c-.976 0-1.584.336-2.016 1.344V7.696h-2.24v8.064h2.24zm8.24 0l2.944-8.064H70.68L69 12.912l-1.696-5.216h-2.272l2.944 8.064h2.048zM75 6.528c.736 0 1.312-.528 1.312-1.264C76.312 4.544 75.736 4 75 4c-.752 0-1.312.544-1.312 1.264 0 .736.56 1.264 1.312 1.264zm1.12 9.232V7.696h-2.24v8.064h2.24zm5.376.128c2.096 0 3.76-1.344 4-3.136h-2.272c-.16.72-.816 1.216-1.632 1.216-1.216 0-1.936-.928-1.936-2.24 0-1.312.704-2.256 1.904-2.256.816 0 1.504.528 1.632 1.248h2.24c-.144-1.872-1.824-3.152-3.936-3.152-2.496 0-4.16 1.808-4.16 4.16 0 2.352 1.664 4.16 4.16 4.16zm8.864 0c1.984 0 3.52-1.12 3.84-2.864h-2.176c-.176.688-.768 1.04-1.664 1.04-1.12 0-1.84-.704-2-1.84h5.792c.016-.176.032-.416.032-.72 0-1.84-1.136-3.936-3.984-3.936-2.736 0-3.984 2.096-3.984 4.144 0 2.032 1.408 4.176 4.144 4.176zm1.6-5.072h-3.568c.192-1.12.8-1.616 1.808-1.616 1.072 0 1.696.72 1.76 1.616zm6.32 5.072c1.888 0 3.136-1.008 3.136-2.544 0-3.648-4.416-1.776-4.416-3.424 0-.512.432-.784 1.056-.784.608 0 1.232.368 1.328 1.056h1.936c-.08-1.584-1.392-2.624-3.328-2.624-1.648 0-2.88 1.008-2.88 2.432 0 3.392 4.336 1.776 4.336 3.424 0 .448-.48.784-1.168.784-.832 0-1.392-.448-1.472-1.168h-1.92c.08 1.744 1.424 2.848 3.392 2.848z" transform="translate(-62 -40) translate(62 40.113)"/>
            </g>
        </g>
    </g>
</svg>
