<svg xmlns="http://www.w3.org/2000/svg" xmlns:xlink="http://www.w3.org/1999/xlink" width="45" height="45" viewBox="0 0 45 45">
    <defs>
        <path id="ygbs92tfqa" d="M0.113 0.315L2.578 0.315 2.578 11.232 0.113 11.232z"/>
    </defs>
    <g fill="none" fill-rule="evenodd">
        <g>
            <g transform="translate(-26 -114) translate(26 114)">
                <circle cx="22.5" cy="22.5" r="22.5" fill="#EB1E27"/>
                <g>
                    <path fill="#FFF" d="M1.11 25.989l12.704-4.992.896-.352 1.792-.704c.32-.128.48-.48.384-.8-1.6-4.576-5.152-8.128-9.728-9.728-.32-.128-.672.064-.8.384l-.736 1.792-.352.896L.31 25.157c-.096.224-.032.512.128.672.128.128.288.192.448.192.096.032.16 0 .224-.032" transform="translate(10 9)"/>
                    <g transform="translate(10 9) translate(12.48 .005)">
                        <mask id="8ae3dhad1b" fill="#fff">
                            <use xlink:href="#ygbs92tfqa"/>
                        </mask>
                        <path fill="#FFF" d="M.534 11.168c.096.032.192.064.288.064.224 0 .448-.128.576-.352 1.6-3.2 1.568-7.008-.064-10.208C1.174.352.79.224.47.384c-.32.16-.448.544-.288.864 1.472 2.816 1.472 6.208.064 9.056-.16.32-.032.704.288.864" mask="url(#8ae3dhad1b)"/>
                    </g>
                    <path fill="#FFF" d="M7.286 8.133c.064 0 .128.032.16.032.288 0 .544-.192.608-.48.512-1.792.096-3.744-1.056-5.216-.224-.288-.608-.32-.896-.096-.288.224-.32.608-.096.896.896 1.152 1.216 2.688.832 4.096-.096.32.096.672.448.768M25.59 12.485c-3.168-1.632-7.008-1.664-10.208-.064-.32.16-.448.544-.288.864.16.32.544.448.864.288 2.848-1.408 6.24-1.376 9.056.064.096.064.192.064.288.064.224 0 .448-.128.576-.352.16-.32.032-.704-.288-.864M18.614 18.213c-.352.096-.544.448-.448.8.096.352.448.544.8.448 1.408-.384 2.944-.096 4.096.832.128.096.256.128.384.128.192 0 .384-.096.512-.256.224-.288.16-.672-.096-.896-1.504-1.152-3.456-1.536-5.248-1.056M24.086 3.365c-.096-.224-.32-.352-.576-.384h-1.184l-.64-.992c-.128-.192-.352-.32-.608-.288-.256.032-.448.192-.544.416l-.416 1.152-1.184.32c-.224.064-.416.256-.448.512-.032.224.064.48.256.64l.928.704-.096 1.184c-.032.256.096.48.32.608.096.064.192.096.32.096s.256-.032.352-.128L21.59 6.5l1.12.416c.224.096.48.032.64-.128.192-.16.256-.416.192-.64l-.32-1.152.768-.96c.16-.192.192-.448.096-.672" transform="translate(10 9)"/>
                </g>
            </g>
        </g>
    </g>
</svg>
